<?xml version="1.0" standalone="no"?>
<!DOCTYPE svg PUBLIC "-//W3C//DTD SVG 20010904//EN"
        "http://www.w3.org/TR/2001/REC-SVG-20010904/DTD/svg10.dtd">
<svg version="1.0" xmlns="http://www.w3.org/2000/svg"
     width="22" height="32" viewBox="0 0 55 81"
     preserveAspectRatio="xMidYMid meet">

    <g transform="translate(0.000000,2048.000000) scale(0.100000,-0.100000)"
       fill="#000000" stroke="none">
        <path d="M9938 14521 l-3 -216 -50 -7 c-27 -4 -103 -14 -169 -23 -629 -85
-1293 -378 -1841 -814 -416 -330 -731 -691 -1010 -1156 -80 -133 -208 -386
-247 -485 -11 -30 -34 -89 -49 -130 -16 -41 -45 -127 -63 -190 -96 -322 -135
-537 -170 -941 l-6 -66 61 -7 c108 -11 126 -9 133 17 3 12 6 49 6 82 0 81 25
295 51 430 78 416 218 792 445 1193 466 821 1304 1486 2229 1765 215 65 430
105 674 127 63 5 115 11 116 12 2 2 45 89 98 193 97 195 129 246 144 232 4 -5
8 -619 8 -1365 l0 -1357 -80 -8 c-364 -36 -693 -169 -1004 -407 -82 -62 -243
-222 -314 -310 -228 -286 -358 -605 -403 -988 l-18 -154 -101 6 c-55 3 -606 8
-1224 12 l-1124 6 5 237 5 236 -51 49 c-28 27 -76 68 -107 91 l-55 43 -10 -26
c-5 -15 -7 -45 -3 -67 4 -22 8 -334 9 -692 1 -379 5 -653 11 -653 10 0 166
124 193 154 17 20 18 35 11 249 l-7 227 1233 -2 1233 -3 7 -35 c4 -19 12 -71
19 -115 54 -371 300 -818 584 -1064 234 -202 401 -304 635 -391 148 -54 386
-109 536 -122 l30 -3 -4 -215 c-2 -118 -5 -217 -8 -219 -2 -3 -63 0 -136 7
-407 37 -729 150 -1072 377 -249 165 -450 357 -653 625 l-87 115 -3 -80 c-2
-44 -2 -303 0 -575 3 -446 6 -500 22 -542 25 -66 84 -128 158 -169 l63 -34
855 -5 855 -5 3 -535 c4 -591 -3 -840 -22 -840 -18 0 -63 86 -145 271 l-73
167 -57 11 c-31 6 -119 23 -196 37 -517 93 -967 274 -1444 582 -575 370 -1063
913 -1371 1522 -105 209 -165 352 -235 560 l-52 155 -84 2 c-46 1 -89 0 -96
-2 -15 -5 57 -232 140 -445 136 -349 362 -731 621 -1050 347 -426 793 -807
1256 -1071 130 -74 434 -219 555 -264 206 -77 479 -151 685 -185 191 -32 170
1 170 -275 l0 -235 405 0 405 0 0 233 0 232 198 32 c907 149 1706 590 2311
1278 162 184 344 430 450 608 130 217 273 548 362 837 31 100 79 281 79 299 0
7 -32 11 -87 11 l-88 0 -52 -173 c-74 -248 -189 -532 -295 -727 -23 -41 -55
-100 -71 -130 -73 -134 -229 -360 -345 -500 -91 -110 -411 -428 -512 -509
-282 -227 -608 -422 -941 -564 -290 -124 -738 -236 -1045 -262 l-80 -7 -34
-91 c-44 -122 -146 -337 -159 -337 -8 0 -10 201 -9 683 l3 682 1045 5 1045 5
65 31 c80 39 144 93 173 148 l22 41 3 1111 2 1111 83 6 c107 9 881 9 1415 0
l422 -6 0 -228 0 -227 88 -73 c48 -40 89 -77 90 -81 16 -38 19 64 15 535 -5
573 3 834 24 830 10 -2 10 3 1 22 -6 14 -15 25 -19 25 -11 0 -127 -96 -171
-142 l-38 -40 0 -234 0 -234 -949 0 -948 0 -8 248 c-4 136 -6 636 -4 1112 3
863 3 865 -18 912 -30 67 -95 133 -166 168 l-60 30 -1019 0 -1018 0 0 -74 0
-74 43 -7 c346 -53 680 -188 1018 -414 200 -133 356 -284 539 -520 313 -403
473 -801 536 -1333 l6 -58 -225 0 -225 0 -7 53 c-18 148 -50 314 -80 413 -158
521 -468 905 -950 1176 -179 101 -435 181 -650 203 -38 4 -73 13 -77 19 -11
17 -10 2708 1 2702 5 -3 23 -43 39 -89 40 -110 130 -310 143 -318 6 -3 60 -9
120 -13 326 -21 691 -106 1039 -243 901 -354 1634 -1026 2041 -1872 188 -390
317 -844 370 -1306 10 -93 19 -176 19 -182 0 -10 26 -13 95 -13 52 0 95 3 95
8 0 16 -30 318 -35 346 -86 551 -253 1046 -493 1456 -358 612 -844 1097 -1484
1479 -303 181 -719 349 -1083 436 -186 45 -353 74 -456 79 l-84 4 -3 216 c-2
216 -2 216 -25 216 -12 0 -199 2 -414 3 l-393 3 -2 -215z m2177 -2691 c0 -18
-6 -26 -22 -28 -18 -3 -23 1 -23 21 0 28 9 39 30 35 9 -2 15 -14 15 -28z
m-1684 -843 c83 -51 556 -354 603 -386 22 -16 93 -58 156 -95 l115 -66 -3
-558 c-2 -306 -5 -564 -8 -572 -2 -8 -27 -28 -55 -43 -82 -45 -702 -521 -801
-615 -52 -50 -59 -53 -77 -41 -204 148 -931 704 -936 717 -9 20 -24 1106 -16
1110 15 7 309 190 700 434 130 81 243 148 252 148 8 0 40 -15 70 -33z m2223
-1177 c6 -7 -37 -242 -70 -380 -65 -277 -144 -458 -325 -749 -194 -312 -557
-636 -914 -814 -237 -118 -517 -191 -837 -220 l-58 -6 0 225 0 224 48 0 c129
0 367 57 545 130 380 156 654 389 871 739 135 219 216 441 266 728 10 62 22
118 25 124 7 10 438 9 449 -1z m-3836 -1980 c34 -28 40 -40 19 -40 -19 0 -63
-50 -74 -84 l-9 -29 -19 42 c-10 24 -33 50 -52 62 -42 26 -42 42 2 58 27 9 37
20 45 49 5 20 10 48 10 62 1 17 8 7 24 -34 13 -36 35 -70 54 -86z"/>
        <path d="M10200 10702 c-80 -49 -213 -133 -295 -188 -83 -54 -185 -121 -226
-148 l-77 -48 5 -417 c6 -475 0 -444 99 -525 239 -195 637 -496 656 -496 7 0
101 68 208 151 227 176 285 225 397 331 46 43 87 78 92 78 25 0 31 90 31 440
0 294 3 370 14 392 l14 27 -126 83 c-70 45 -174 116 -232 158 -130 93 -382
250 -401 250 -8 0 -79 -40 -159 -88z m345 -156 c88 -59 221 -149 295 -199
l135 -93 3 -284 c2 -157 0 -331 -3 -388 l-7 -102 -40 -28 c-21 -15 -119 -87
-216 -161 -97 -73 -217 -160 -265 -193 l-89 -60 -56 38 c-127 84 -358 249
-462 331 -87 68 -110 92 -111 112 -1 14 -3 182 -6 373 l-4 347 103 71 c57 39
166 113 243 164 77 51 172 114 210 139 39 26 79 45 90 44 11 -2 92 -52 180
-111z"/>
        <path d="M10289 10170 c-87 -15 -174 -79 -214 -158 -41 -82 -38 -218 6 -304
47 -92 161 -168 251 -168 106 0 237 79 285 173 19 38 27 72 31 127 7 136 -53
243 -171 299 -71 34 -122 42 -188 31z"/>
        <path d="M8037 12525 c-97 -27 -201 -120 -250 -223 -57 -122 -49 -286 21 -415
52 -97 171 -178 287 -196 170 -26 361 72 435 223 83 168 56 366 -67 497 -101
108 -276 155 -426 114z"/>
        <path d="M8166 10845 c-9 -26 -7 -32 5 -12 6 10 9 21 6 23 -2 3 -7 -2 -11 -11z"/>
        <path d="M8096 10665 c-3 -9 -6 -22 -5 -28 0 -7 5 -1 10 12 5 13 8 26 5 28 -2
2 -6 -3 -10 -12z"/>
        <path d="M8061 10534 c0 -11 3 -14 6 -6 3 7 2 16 -1 19 -3 4 -6 -2 -5 -13z"/>
        <path d="M8021 10354 c0 -11 3 -14 6 -6 3 7 2 16 -1 19 -3 4 -6 -2 -5 -13z"/>
    </g>
</svg>
